<?xml version="1.0" encoding="utf-8"?>
<!-- Generator: Adobe Illustrator 16.0.4, SVG Export Plug-In . SVG Version: 6.00 Build 0)  -->
<!DOCTYPE svg PUBLIC "-//W3C//DTD SVG 1.1//EN" "http://www.w3.org/Graphics/SVG/1.1/DTD/svg11.dtd">
<svg version="1.1" id="Layer_1" xmlns="http://www.w3.org/2000/svg" xmlns:xlink="http://www.w3.org/1999/xlink" x="0px" y="0px"
	 width="100px" height="50px" viewBox="0 0 100 50" enable-background="new 0 0 100 50" xml:space="preserve">
<rect display="none" fill="#EF4036" width="100" height="50"/>
<path opacity="0.93" fill="#EF4036" d="M96.536,34.771l-4.207-2.114l-2.989-2.869l-2.899-3.469l-2.522-1.696l-5.14-4.889
	l-3.646-2.848l-1.868-3.559l-2.335-0.623l-4.208-4.449l-1.773,1.513l-3.085,2.403l-3.927,5.161l-1.775,0.534l-1.681,1.601L53.264,20
	l1.123,1.869l0.093,1.514l1.679,1.601l3.362,1.246l3.731,0.89l3.446,3.47l-3.388-1.957l-4.253-1.513l-4.11-1.246l-1.809-2.687
	v-0.694l-2.459-3.56l2.773-0.89l-7.009-8.898l-5.327-1.868L38.5,4.162l-2.524,1.067l-1.588,1.869l-2.243,3.648l-1.494,0.623
	l-1.589,0.444l-1.962,2.314c0,0-2.056,2.135-2.336,2.135c-0.281,0-1.87,2.135-1.87,2.135l-2.803,4.093l-0.841,0.978l-1.495,2.135
	l-3.646-0.712l-0.935,1.601l-1.495,1.511L4.576,39.925l-2.241,1.061L0,45.066l4.004-0.435l3.281-2.049l4.859-2.208l3.551-3.735
	l1.414,3.427l7.201-2.857l3.055-4.261l1.602-3.339l6.261-4.995l-2.284,3.75l9.574-3.75l-8.038,4.907l-3.455-0.062l-1.301,1.653
	l-3.45,5.265l5.292,1.403l-1.361-0.033l-3.221-0.331L18.5,40.464l-1.495,2.119l-0.935,2.049l7.943-1.227l6.542-0.822l3.269,1.353
	l4.11-0.087l0.276-3.562l2.795-1.156l-0.109-2.047l2.303-2.847l3.608-1.275V30.41l5.277,7.78l2.212-0.301l4.242,0.237l2.151,4.456
	l6.871-1.679v-1.773l0.096-2.134l-1.961-1.96l-2.896-1.869l3.923,0.535l2.243,1.869l2.243,0.644l1.589,2.112l6.638,0.714
	l-0.096-2.402l2.617,1.155l4.111-0.266l6.595,1.688l8.266-0.176L96.536,34.771z M35.362,18.935l-3.253,0.689l3.253-2.752V18.935z
	 M50.223,20.987l-4.969-2.774v-1.961l-3.064-2.618l0.825,4.373l-3.209-4.373l-2.671,3.65v-3.199l-10.704,7.74l3.62-5.676
	l-3.144,1.135l3.034-4.334l3.161-0.921l2.8-4.863l2.385-0.885l1.409,1.708l6.033,1.865l4.733,6.708l-2.84,0.722L50.223,20.987z
	 M84.053,27.398l-2.623-1.44l-3.686-3.721l-4.445-2.614l-1.409-2.752h-2.275l-5.568-4.843l2.33-1.866l3.455,3.89h2.385l2.265,3.541
	l3.914,3.394l3.852,3.658l3.301,2.221l1.947,3.422L84.053,27.398z"/>
<text transform="matrix(1 0 0 1 6.7173 32.9609)" fill="#FFFFFF" font-family="'AlfaSlabOne-Regular'" font-size="19.0961">GEAR </text>
<text transform="matrix(1 0 0 1 69.5117 32.9609)" fill="#FFFFFF" font-family="'AlfaSlabOne-Regular'" font-size="17.5048">UP</text>
<text transform="matrix(1 0 0 1 9.2271 17.0376)" fill="#FFFFFF" font-family="'Pacifico'" font-size="6.3654">The </text>
</svg>
